# xmcd
#
# Track frame offsets:
#	150
#	11035
#	28585
#	39460
#	54460
#	66680
#	79585
#	92600
#	104745
#	129950
#	140745
#	154100
#	164000
#	171350
#
# Disc length: 2422
#
# Revision: 1
# Processed by: cddbd v1.5.1PL0 Copyright (c) Steve Scherf et al.
# Submitted via: ACXtractor (MTCDDB.DLL V2002.09.11)
# Normalized: r0:TDELIM( - )
#
DISCID=c309740e
DTITLE=Various Artist - Country Gospel [CD1]
DYEAR=1995
DGENRE=Gospel
TTITLE0=Johnny Cash - Daddy Sang Bass
TTITLE1=Tennessee Ernie Ford - What A Friend We Have In Jesus
TTITLE2=Loretta Lynn - In The Sweet Bye And Bye
TTITLE3=George Jones - Amazing Grace
TTITLE4=Ernest Tubb - I Saw The Light
TTITLE5=Tennessee Ernie Ford - Precious Memories
TTITLE6=Eddy Arnold - May The Good Lord Bless And Keep You
TTITLE7=Ernest Tubb - Wings Of A Dove
TTITLE8=Willie Nelson - Whispering Hope
TTITLE9=Ferlin Husky - I'll Fly Away
TTITLE10=Ray Price - When The Roll Is Called Up Yonder
TTITLE11=Marty Robbins - You Gotta Climb
TTITLE12=Jimmy Dean - Take My Hand Precious Lord
TTITLE13=Jim Reeves - In The Garden
EXTD=YEAR: 1995 ID3G:  38 
EXTT0=
EXTT1=
EXTT2=
EXTT3=
EXTT4=
EXTT5=
EXTT6=
EXTT7=
EXTT8=
EXTT9=
EXTT10=
EXTT11=
EXTT12=
EXTT13=
PLAYORDER=
